<?xml version="1.0" standalone="no"?>
<!DOCTYPE svg PUBLIC "-//W3C//DTD SVG 20010904//EN"
 "http://www.w3.org/TR/2001/REC-SVG-20010904/DTD/svg10.dtd">
<svg version="1.0" xmlns="http://www.w3.org/2000/svg"
 width="259.000000pt" height="259.000000pt" viewBox="0 0 259.000000 259.000000"
 preserveAspectRatio="xMidYMid meet">
<metadata>
Created by potrace 1.11, written by Peter Selinger 2001-2013
</metadata>
<g transform="translate(0.000000,259.000000) scale(0.100000,-0.100000)"
fill="#000000" stroke="none">
<path d="M1026 2163 c-1 -1 -31 -4 -67 -6 -36 -2 -70 -6 -75 -9 -5 -3 -25 -9
-45 -12 -20 -3 -57 -15 -83 -26 -26 -11 -54 -20 -62 -20 -8 0 -14 -4 -14 -10
0 -5 -5 -10 -11 -10 -15 0 -172 -103 -216 -142 -20 -18 -59 -57 -87 -87 -28
-30 -59 -62 -68 -73 -10 -10 -18 -22 -18 -28 0 -5 -4 -10 -9 -10 -5 0 -19 -16
-31 -35 -12 -20 -28 -41 -35 -49 -14 -13 -108 -184 -112 -201 -1 -5 -11 -35
-23 -65 -11 -30 -21 -70 -22 -87 -1 -18 -4 -33 -8 -33 -3 0 -5 -13 -4 -30 1
-16 -1 -30 -4 -30 -4 0 -6 -44 -5 -97 4 -128 5 -153 12 -153 3 0 7 -15 9 -33
4 -48 6 -58 30 -111 12 -27 22 -51 22 -54 0 -14 98 -116 138 -144 26 -18 52
-37 59 -44 41 -40 253 -122 332 -128 14 -1 31 -4 36 -7 6 -3 43 -5 82 -5 43 1
73 -3 73 -9 0 -6 3 -6 8 0 4 6 14 10 22 10 8 -1 23 3 33 7 11 6 17 5 17 -2 0
-8 6 -8 20 0 10 6 23 9 27 8 45 -10 326 97 348 132 3 6 10 8 15 5 4 -3 10 2
13 10 5 11 12 10 44 -7 74 -41 148 3 129 76 -8 32 -92 102 -134 111 -34 7 -92
-9 -92 -26 0 -5 -7 -9 -15 -9 -8 0 -15 -4 -15 -9 0 -5 -36 -28 -80 -50 -44
-23 -80 -39 -80 -36 0 3 -10 -1 -22 -9 -56 -36 -283 -61 -388 -43 -136 24
-298 104 -388 193 -30 30 -90 144 -76 144 4 0 1 7 -6 16 -17 19 -23 233 -9
289 5 22 11 47 13 56 10 39 38 115 48 126 6 7 7 13 4 13 -4 0 2 13 13 29 12
16 21 32 21 36 0 8 76 119 95 138 8 9 15 18 15 22 0 7 174 181 208 208 12 9
27 17 32 17 6 0 10 4 10 9 0 10 122 72 190 96 105 38 275 41 390 6 87 -26 180
-69 180 -83 0 -5 4 -7 8 -4 5 3 24 -8 43 -24 19 -16 40 -29 47 -30 6 0 12 -3
12 -7 1 -5 21 -30 46 -58 48 -53 85 -117 108 -187 19 -60 38 -166 31 -177 -3
-5 -2 -12 3 -15 9 -5 7 -434 -2 -516 -12 -114 -9 -206 9 -233 20 -30 53 -42
90 -33 45 11 56 44 60 171 4 121 22 197 57 235 10 11 18 22 18 25 0 8 53 54
63 55 5 0 -1 -13 -13 -29 -107 -151 -76 -372 65 -468 52 -36 128 -52 218 -48
79 3 170 28 203 56 8 6 14 8 14 5 0 -4 14 7 30 24 17 17 30 37 30 45 0 8 4 15
8 15 5 0 9 7 9 15 0 8 -4 15 -9 15 -5 0 -6 4 -3 10 3 5 -5 21 -18 34 -29 29
-76 27 -107 -4 -36 -36 -130 -68 -190 -63 -110 8 -161 66 -154 176 4 77 59
150 180 241 83 63 105 97 90 145 -16 54 -43 65 -139 58 -45 -4 -92 -9 -104
-12 -13 -3 -32 -7 -42 -9 -11 -3 -28 -9 -38 -14 -10 -6 -20 -9 -23 -9 -3 1
-32 -14 -65 -33 -33 -19 -62 -36 -65 -37 -3 -2 -6 32 -8 75 -4 99 -10 169 -18
207 -3 17 -7 39 -9 50 -4 36 -26 109 -48 160 -36 88 -95 163 -219 278 -29 27
-172 106 -220 122 -12 4 -25 8 -28 9 -17 7 -90 26 -115 30 -16 2 -30 5 -30 6
0 4 -155 17 -159 13z"/>
<path d="M1077 1920 c-112 -28 -193 -105 -213 -201 -28 -136 24 -263 134 -327
39 -22 136 -39 205 -37 122 5 218 70 274 182 72 149 -17 339 -177 380 -36 9
-188 11 -223 3z m201 -111 c96 -31 143 -135 101 -223 -24 -52 -37 -68 -73 -91
-39 -25 -49 -28 -131 -28 -77 0 -118 7 -123 23 -2 5 -8 10 -13 10 -15 0 -45
32 -61 65 -22 45 -16 138 13 179 49 72 175 100 287 65z"/>
<path d="M373 1152 c-64 -69 -117 -250 -81 -279 23 -19 37 0 49 63 11 62 38
130 70 176 39 54 7 88 -38 40z"/>
<path d="M481 1106 c-22 -27 -90 -175 -100 -219 -13 -53 -7 -87 13 -87 16 0
32 31 46 90 7 25 29 77 51 117 21 40 39 78 39 86 0 19 -36 29 -49 13z"/>
<path d="M592 1038 c-7 -7 -12 -18 -12 -25 0 -7 -4 -13 -8 -13 -7 0 -54 -99
-57 -120 -1 -3 -7 -23 -13 -45 -17 -56 -15 -73 9 -80 24 -8 28 -5 35 26 8 38
9 42 24 84 7 22 28 67 46 101 25 46 30 64 21 73 -14 14 -30 14 -45 -1z"/>
</g>
</svg>
