<?xml version="1.0" standalone="no"?>
<!DOCTYPE svg PUBLIC "-//W3C//DTD SVG 20010904//EN"
 "http://www.w3.org/TR/2001/REC-SVG-20010904/DTD/svg10.dtd">
<svg version="1.0" xmlns="http://www.w3.org/2000/svg"
 width="16.000000pt" height="16.000000pt" viewBox="0 0 16.000000 16.000000"
 preserveAspectRatio="xMidYMid meet">
<metadata>
Created by potrace 1.11, written by Peter Selinger 2001-2013
</metadata>
<g transform="translate(0.000000,16.000000) scale(0.003125,-0.003125)"
fill="#000000" stroke="none">
<path d="M2560 4720 l0 -80 80 0 80 0 0 80 0 80 -80 0 -80 0 0 -80z"/>
<path d="M2400 4400 l0 -80 -80 0 -80 0 0 -80 0 -80 -80 0 -80 0 0 -80 0 -80
-80 0 -80 0 0 -80 0 -80 -80 0 -80 0 0 -560 0 -560 80 0 80 0 0 -160 0 -160
-80 0 -80 0 0 80 0 80 -160 0 -160 0 0 -80 0 -80 80 0 80 0 0 -320 0 -320 80
0 80 0 0 -160 0 -160 80 0 80 0 0 -160 0 -160 80 0 80 0 0 -80 0 -80 80 0 80
0 0 -80 0 -80 80 0 80 0 0 -80 0 -80 80 0 80 0 0 80 0 80 160 0 160 0 0 80 0
80 80 0 80 0 0 80 0 80 80 0 80 0 0 80 0 80 160 0 160 0 0 160 0 160 80 0 80
0 0 160 0 160 80 0 80 0 0 320 0 320 -80 0 -80 0 0 80 0 80 -80 0 -80 0 0 80
0 80 -80 0 -80 0 0 160 0 160 -80 0 -80 0 0 80 0 80 80 0 80 0 0 160 0 160
-80 0 -80 0 0 -160 0 -160 -80 0 -80 0 0 -80 0 -80 -80 0 -80 0 0 -80 0 -80
-160 0 -160 0 0 160 0 160 -80 0 -80 0 0 400 0 400 80 0 80 0 0 160 0 160 -80
0 -80 0 0 -80z"/>
<path d="M3680 4320 l0 -160 -80 0 -80 0 0 -320 0 -320 80 0 80 0 0 80 0 80
80 0 80 0 0 400 0 400 -80 0 -80 0 0 -160z"/>
<path d="M1440 4160 l0 -160 -80 0 -80 0 0 -80 0 -80 -80 0 -80 0 0 -80 0 -80
-80 0 -80 0 0 -160 0 -160 80 0 80 0 0 -80 0 -80 160 0 160 0 0 -80 0 -80 80
0 80 0 0 80 0 80 -80 0 -80 0 0 400 0 400 80 0 80 0 0 160 0 160 -80 0 -80 0
0 -160z"/>
<path d="M1120 1680 l0 -80 -80 0 -80 0 0 -160 0 -160 80 0 80 0 0 -80 0 -80
80 0 80 0 0 -80 0 -80 80 0 80 0 0 -80 0 -80 80 0 80 0 0 240 0 240 -80 0 -80
0 0 80 0 80 -80 0 -80 0 0 160 0 160 -80 0 -80 0 0 -80z"/>
<path d="M4160 1600 l0 -160 -160 0 -160 0 0 -160 0 -160 -80 0 -80 0 0 -80 0
-80 -80 0 -80 0 0 -80 0 -80 80 0 80 0 0 80 0 80 160 0 160 0 0 80 0 80 80 0
80 0 0 160 0 160 80 0 80 0 0 160 0 160 -80 0 -80 0 0 -160z"/>
</g>
</svg>
